<?xml version="1.0" encoding="UTF-8" standalone="no"?>
<!-- Generator: Adobe Illustrator 19.2.1, SVG Export Plug-In . SVG Version: 6.00 Build 0)  -->

<svg
   version="1.1"
   id="layer"
   x="0px"
   y="0px"
   viewBox="0 0 164.2 93.800003"
   xml:space="preserve"
   sodipodi:docname="logo.svg"
   width="164.2"
   height="93.800003"
   inkscape:version="1.1.1 (c3084ef, 2021-09-22)"
   xmlns:inkscape="http://www.inkscape.org/namespaces/inkscape"
   xmlns:sodipodi="http://sodipodi.sourceforge.net/DTD/sodipodi-0.dtd"
   xmlns="http://www.w3.org/2000/svg"
   xmlns:svg="http://www.w3.org/2000/svg"><defs
   id="defs138" /><sodipodi:namedview
   id="namedview136"
   pagecolor="#ffffff"
   bordercolor="#666666"
   borderopacity="1.0"
   inkscape:pageshadow="2"
   inkscape:pageopacity="0.0"
   inkscape:pagecheckerboard="0"
   showgrid="false"
   fit-margin-top="0"
   fit-margin-left="0"
   fit-margin-right="0"
   fit-margin-bottom="0"
   inkscape:zoom="1.3389571"
   inkscape:cx="324.87971"
   inkscape:cy="60.868268"
   inkscape:window-width="1966"
   inkscape:window-height="1089"
   inkscape:window-x="1581"
   inkscape:window-y="51"
   inkscape:window-maximized="0"
   inkscape:current-layer="layer" />
<style
   type="text/css"
   id="style131">
	.st0{fill:#00C800;}
</style>
<path
   class="st0"
   d="m 116.1,56.2 c 5.4,0 9.4,-4.3 9.4,-9.4 0,-5.1 -4.3,-9.4 -9.4,-9.4 -5.4,0 -9.4,4.3 -9.4,9.4 0,5.1 4.4,9.4 9.4,9.4 M 46.9,37.5 c -5.4,0 -9.4,4.3 -9.4,9.4 0,5.1 4.3,9.4 9.4,9.4 5.1,0 9.4,-4.3 9.4,-9.4 0,-5.1 -4.4,-9.4 -9.4,-9.4 m 0,-18.8 c -15.5,0 -28.1,12.6 -28.1,28.1 0,15.5 12.6,28.1 28.1,28.1 h 70.4 c 15.5,0 28.1,-12.6 28.1,-28.1 0,-15.5 -12.6,-28.1 -28.1,-28.1 H 46.9 m 70.3,75.1 H 46.9 C 20.9,93.8 0,72.9 0,46.9 0,20.9 20.9,0 46.9,0 h 70.4 c 26,0 46.9,20.9 46.9,46.9 0,26 -21.4,46.9 -47,46.9"
   id="path133"
   sodipodi:nodetypes="csssccsssccsssssccsssssc" />
</svg>
