<svg width="1070" height="715" viewBox="0 0 1070 715" fill="none" xmlns="http://www.w3.org/2000/svg">
<rect width="1070" height="714.426" fill="#8BC248"/>
<g clip-path="url(#clip0_114_2476)">
<path d="M603.331 375.948C614.184 375.948 622.223 367.306 622.223 357.056C622.223 346.806 613.581 338.164 603.331 338.164C592.479 338.164 584.44 346.806 584.44 357.056C584.44 367.306 593.283 375.948 603.331 375.948ZM464.257 338.365C453.404 338.365 445.365 347.007 445.365 357.257C445.365 367.507 454.007 376.149 464.257 376.149C474.507 376.149 483.149 367.507 483.149 357.257C483.149 347.007 474.306 338.365 464.257 338.365ZM464.257 300.582C433.106 300.582 407.783 325.905 407.783 357.056C407.783 388.207 433.106 413.53 464.257 413.53H605.743C636.894 413.53 662.217 388.207 662.217 357.056C662.217 325.905 636.894 300.582 605.743 300.582H464.257M605.542 451.514H464.257C412.004 451.514 370 409.51 370 357.257C370 305.004 412.004 263 464.257 263H605.743C657.996 263 700 305.004 700 357.257C700 409.51 656.991 451.514 605.542 451.514" fill="black" fill-opacity="0.2"/>
</g>
<defs>
<clipPath id="clip0_114_2476">
<rect width="330" height="188.514" fill="white" transform="translate(370 263)"/>
</clipPath>
</defs>
</svg>
