<svg width="1070" height="715" viewBox="0 0 1070 715" fill="none" xmlns="http://www.w3.org/2000/svg">
<rect width="1070" height="714.426" fill="#008FD1"/>
<g clip-path="url(#clip0_113_4)">
<path d="M533.035 190.003C519.428 190.066 506.433 191.226 494.999 193.25C461.316 199.2 455.2 211.656 455.2 234.625V264.961H534.797V275.073H455.2H425.328C402.195 275.073 381.939 288.978 375.603 315.429C368.295 345.747 367.971 364.667 375.603 396.325C381.261 419.889 394.774 436.68 417.907 436.68H445.274V400.314C445.274 374.041 468.005 350.867 494.999 350.867H574.503C596.634 350.867 614.302 332.645 614.302 310.419V234.625C614.302 213.054 596.104 196.85 574.503 193.25C560.83 190.974 546.642 189.94 533.035 190.003ZM489.989 214.401C498.211 214.401 504.925 221.225 504.925 229.616C504.925 237.977 498.211 244.737 489.989 244.737C481.738 244.737 475.053 237.977 475.053 229.616C475.053 221.225 481.738 214.401 489.989 214.401Z" fill="black" fill-opacity="0.2"/>
<path d="M624.229 275.073V310.419C624.229 337.822 600.996 360.886 574.504 360.886H494.999C473.222 360.886 455.201 379.525 455.201 401.334V477.127C455.201 498.699 473.958 511.387 494.999 517.575C520.195 524.984 544.357 526.323 574.504 517.575C594.543 511.773 614.302 500.097 614.302 477.127V446.791H534.798V436.679H614.302H654.101C677.234 436.679 685.854 420.544 693.899 396.324C702.21 371.391 701.856 347.413 693.899 315.428C688.182 292.399 677.263 275.073 654.101 275.073H624.229ZM579.513 467.015C587.765 467.015 594.449 473.776 594.449 482.137C594.449 490.527 587.765 497.351 579.513 497.351C571.291 497.351 564.577 490.527 564.577 482.137C564.577 473.776 571.291 467.015 579.513 467.015Z" fill="black" fill-opacity="0.2"/>
</g>
<defs>
<clipPath id="clip0_113_4">
<rect width="330" height="333.645" fill="white" transform="translate(370 190)"/>
</clipPath>
</defs>
</svg>
