<svg width="105" height="37" viewBox="0 0 105 37" fill="none" xmlns="http://www.w3.org/2000/svg">
<path d="M1 3.33333C1 2.71449 1.24583 2.121 1.68342 1.68342C2.121 1.24583 2.71449 1 3.33333 1L8 1C9.16667 1 9.75 1.58333 10.3333 2.16667L12.6667 4.5C13.25 5.08333 13.8333 5.66667 15 5.66667H22C23.1667 5.66667 23.75 5.08333 24.3333 4.5L26.6667 2.16667C27.25 1.58333 27.8333 1 29 1H102.089C102.708 1 103.302 1.24583 103.739 1.68342C104.177 2.121 104.423 2.71449 104.423 3.33333V8V26.6667V29C104.423 29.6188 104.177 30.2123 103.739 30.6499C103.302 31.0875 102.708 31.3333 102.089 31.3333H29C27.8333 31.3333 27.25 31.9167 26.6667 32.5L24.3333 34.8333C23.75 35.4167 23.1667 36 22 36H15C13.8333 36 13.25 35.4167 12.6667 34.8333L10.3333 32.5C9.75 31.9167 9.16667 31.3333 8 31.3333H3.33333C2.71449 31.3333 2.121 31.0875 1.68342 30.6499C1.24583 30.2123 1 29.6188 1 29V3.33333Z" fill="#F3F4F6" stroke="#F3F4F6"/>
</svg>
