<svg width="91" height="45" viewBox="0 0 91 45" fill="none" xmlns="http://www.w3.org/2000/svg">
<path d="M1 10.6997C15.6965 -2.23324 42.7382 -2.23324 57.4347 10.6997H88.0317C88.6553 10.6997 89.2534 10.9475 89.6944 11.3884C90.1354 11.8294 90.3831 12.4275 90.3831 13.0512V28.3356V15.4026V34.2142V36.5657C90.3831 37.1893 90.1354 37.7874 89.6944 38.2284C89.2534 38.6694 88.6553 38.9171 88.0317 38.9171H29.2174C28.0416 38.9171 27.4538 39.505 26.8659 40.0928L24.5145 42.4443C23.9266 43.0321 23.3387 43.62 22.163 43.62H15.1087C13.933 43.62 13.3451 43.0321 12.7572 42.4443L10.4058 40.0928C9.81793 39.505 9.23006 38.9171 8.05434 38.9171H3.35145C2.7278 38.9171 2.1297 38.6694 1.68872 38.2284C1.24774 37.7874 1 37.1893 1 36.5657V10.6997Z" fill="#F3F4F6" stroke="#F3F4F6"/>
</svg>
