<svg width="12" height="13" viewBox="0 0 12 13" fill="none" xmlns="http://www.w3.org/2000/svg">
<path d="M8.0625 5.9375C8.36719 5.9375 8.625 6.19531 8.625 6.5C8.625 6.82812 8.36719 7.0625 8.0625 7.0625H3.9375C3.60938 7.0625 3.375 6.82812 3.375 6.5C3.375 6.19531 3.60938 5.9375 3.9375 5.9375H8.0625ZM12 6.5C12 9.82812 9.30469 12.5 6 12.5C2.67188 12.5 0 9.82812 0 6.5C0 3.19531 2.67188 0.5 6 0.5C9.30469 0.5 12 3.19531 12 6.5ZM6 1.625C3.30469 1.625 1.125 3.82812 1.125 6.5C1.125 9.19531 3.30469 11.375 6 11.375C8.67188 11.375 10.875 9.19531 10.875 6.5C10.875 3.82812 8.67188 1.625 6 1.625Z" fill="white"/>
</svg>
