<svg width="1070" height="715" viewBox="0 0 1070 715" fill="none" xmlns="http://www.w3.org/2000/svg">
<rect width="1070" height="714.426" fill="#BC1142"/>
<g opacity="0.2">
<path d="M476.389 190.768C474.712 190.82 472.906 191.439 470.858 193.056C465.841 191.12 460.975 190.448 456.623 194.388C449.907 193.516 447.721 195.315 446.066 197.414C444.592 197.384 435.029 195.898 430.644 202.439C419.624 201.135 416.142 208.921 420.088 216.182C417.837 219.666 415.505 223.108 420.768 229.75C418.906 233.45 420.061 237.463 424.446 242.32C423.289 247.52 425.564 251.189 429.645 254.049C428.882 261.166 436.171 265.304 438.348 266.778C439.184 270.925 440.926 274.837 449.252 277.001C450.625 283.181 455.629 284.248 460.475 285.545C444.459 294.854 430.725 307.103 430.818 337.155L428.472 341.34C410.108 352.509 393.586 388.405 419.422 417.582C421.109 426.715 423.939 433.274 426.459 440.534C430.228 469.788 454.827 483.486 461.315 485.106C470.822 492.348 480.948 499.22 494.65 504.033C507.567 517.355 521.561 522.432 535.631 522.424C535.837 522.424 536.047 522.426 536.254 522.424C550.324 522.432 564.317 517.355 577.234 504.033C590.937 499.22 601.062 492.348 610.569 485.106C617.057 483.486 641.656 469.788 645.425 440.534C647.945 433.274 650.775 426.715 652.463 417.582C678.299 388.405 661.777 352.509 643.412 341.34L641.066 337.155C641.159 307.103 627.425 294.854 611.409 285.545C616.255 284.248 621.259 283.181 622.632 277.001C630.958 274.837 632.7 270.925 633.536 266.778C635.713 265.304 643.002 261.166 642.239 254.049C646.32 251.189 648.595 247.52 647.438 242.32C651.824 237.463 652.978 233.45 651.116 229.75C656.379 223.108 654.047 219.666 651.797 216.182C655.743 208.921 652.26 201.135 641.24 202.439C636.855 195.898 627.293 197.384 625.818 197.414C624.163 195.315 621.978 193.516 615.261 194.388C610.909 190.448 606.044 191.12 601.027 193.056C595.068 188.353 591.123 192.123 586.618 193.548C579.401 191.19 577.752 194.42 574.208 195.735C566.342 194.072 563.951 197.692 560.176 201.512L555.788 201.426C543.921 208.42 538.025 222.661 535.935 229.982C533.844 222.659 527.962 208.418 516.096 201.426L511.708 201.512C507.934 197.692 505.543 194.072 497.676 195.735C494.132 194.42 492.483 191.19 485.266 193.548C482.31 192.613 479.591 190.668 476.389 190.768Z" fill="black"/>
<path d="M452.764 221.536C484.25 237.769 502.554 250.901 512.582 262.085C507.446 282.667 480.656 283.607 470.86 283.029C472.866 282.096 474.539 280.978 475.133 279.259C472.675 277.512 463.959 279.075 457.875 275.657C460.212 275.173 461.305 274.701 462.399 272.976C456.65 271.142 450.458 269.562 446.816 266.525C448.781 266.549 450.616 266.965 453.183 265.185C448.034 262.41 442.539 260.211 438.271 255.969C440.933 255.904 443.803 255.943 444.638 254.964C439.925 252.044 435.949 248.797 432.657 245.245C436.383 245.695 437.956 245.308 438.857 244.659C435.295 241.01 430.786 237.929 428.636 233.433C431.402 234.386 433.933 234.751 435.757 233.349C434.547 230.618 429.36 229.007 426.374 222.625C429.286 222.908 432.375 223.261 432.992 222.625C431.638 217.116 429.319 214.02 427.044 210.813C433.277 210.72 442.72 210.837 442.292 210.31L438.438 206.372C444.526 204.733 450.755 206.636 455.277 208.048C457.308 206.446 455.242 204.42 452.764 202.351C457.938 203.042 462.613 204.231 466.839 205.87C469.097 203.831 465.373 201.793 463.571 199.754C471.565 201.27 474.951 203.401 478.316 205.535C480.758 203.194 478.456 201.205 476.808 199.167C482.835 201.4 485.939 204.281 489.208 207.126C490.316 205.631 492.023 204.535 489.962 200.927C494.241 203.393 497.464 206.3 499.847 209.556C502.495 207.87 501.425 205.565 501.439 203.44C505.886 207.058 508.708 210.907 512.163 214.666C512.859 214.16 513.468 212.441 514.006 209.724C524.615 220.016 539.606 245.941 517.86 256.22C499.362 240.953 477.259 229.859 452.764 221.536Z" fill="#BC1142"/>
<path d="M619.831 221.536C588.345 237.769 570.041 250.901 560.013 262.085C565.149 282.667 591.939 283.607 601.735 283.029C599.729 282.096 598.056 280.978 597.462 279.259C599.92 277.512 608.636 279.075 614.72 275.657C612.383 275.173 611.29 274.701 610.196 272.976C615.945 271.142 622.137 269.562 625.779 266.525C623.814 266.549 621.979 266.965 619.412 265.185C624.561 262.41 630.056 260.211 634.324 255.969C631.662 255.904 628.792 255.943 627.957 254.964C632.67 252.044 636.646 248.797 639.938 245.245C636.212 245.695 634.639 245.308 633.738 244.659C637.3 241.01 641.809 237.929 643.959 233.433C641.193 234.386 638.662 234.751 636.838 233.349C638.048 230.618 643.235 229.007 646.221 222.625C643.309 222.908 640.22 223.261 639.602 222.625C640.957 217.116 643.276 214.02 645.551 210.813C639.318 210.72 629.875 210.837 630.303 210.31L634.157 206.372C628.069 204.733 621.84 206.636 617.317 208.048C615.287 206.446 617.353 204.42 619.831 202.351C614.657 203.042 609.982 204.231 605.756 205.87C603.498 203.831 607.222 201.793 609.023 199.754C601.03 201.27 597.644 203.401 594.279 205.535C591.837 203.194 594.139 201.205 595.787 199.167C589.76 201.4 586.656 204.281 583.387 207.126C582.279 205.631 580.572 204.535 582.633 200.927C578.354 203.393 575.131 206.3 572.748 209.556C570.1 207.87 571.17 205.565 571.156 203.44C566.709 207.058 563.887 210.907 560.432 214.666C559.736 214.16 559.127 212.441 558.589 209.724C547.98 220.016 532.989 245.941 554.735 256.22C573.233 240.953 595.336 229.859 619.831 221.536V221.536Z" fill="#BC1142"/>
<path d="M574.429 431.129C574.429 440.353 570.455 449.199 563.382 455.721C556.309 462.244 546.716 465.908 536.713 465.908C526.711 465.908 517.118 462.244 510.045 455.721C502.972 449.199 498.998 440.353 498.998 431.129C498.998 421.906 502.972 413.06 510.045 406.538C517.118 400.015 526.711 396.351 536.713 396.351C546.716 396.351 556.309 400.015 563.382 406.538C570.455 413.06 574.429 421.906 574.429 431.129V431.129Z" fill="#BC1142"/>
<path d="M514.887 331.78C522.391 336.696 527.27 344.92 528.45 354.641C529.63 364.362 527.015 374.784 521.179 383.615C515.343 392.446 506.765 398.962 497.333 401.73C487.9 404.498 478.384 403.291 470.88 398.374C463.375 393.458 458.496 385.234 457.316 375.513C456.136 365.792 458.752 355.37 464.587 346.539C470.423 337.708 479.001 331.191 488.434 328.424C497.867 325.656 507.382 326.863 514.887 331.78V331.78Z" fill="#BC1142"/>
<path d="M557.07 329.926C549.566 334.843 544.687 343.066 543.507 352.787C542.327 362.508 544.942 372.931 550.778 381.762C556.614 390.593 565.192 397.109 574.625 399.877C584.057 402.645 593.573 401.437 601.077 396.521C608.582 391.604 613.461 383.381 614.641 373.66C615.821 363.939 613.205 353.516 607.37 344.685C601.534 335.854 592.956 329.338 583.523 326.57C574.09 323.802 564.575 325.009 557.07 329.926V329.926Z" fill="#BC1142"/>
<path d="M436.786 348.52C453.66 343.998 442.482 418.323 428.754 412.224C413.654 400.078 408.79 364.507 436.786 348.52Z" fill="#BC1142"/>
<path d="M631.765 347.593C614.891 343.072 626.069 417.396 639.797 411.298C654.897 399.151 659.761 363.58 631.765 347.593Z" fill="#BC1142"/>
<path d="M574.44 292.248C603.557 287.332 627.784 304.631 626.809 336.204C625.851 348.309 563.714 294.05 574.44 292.248V292.248Z" fill="#BC1142"/>
<path d="M493.991 291.322C464.874 286.405 440.648 303.704 441.623 335.278C442.581 347.382 504.718 293.124 493.991 291.322Z" fill="#BC1142"/>
<path d="M535.816 283.955C518.437 283.503 501.759 296.853 501.719 304.596C501.67 314.005 515.459 323.638 535.934 323.883C556.844 324.032 570.186 316.172 570.253 306.462C570.33 295.461 551.236 283.785 535.816 283.955V283.955Z" fill="#BC1142"/>
<path d="M536.877 476.892C552.029 476.231 572.359 481.772 572.399 489.124C572.65 496.262 553.961 512.391 535.872 512.079C517.138 512.887 498.769 496.733 499.009 491.134C498.729 482.925 521.82 476.515 536.877 476.892Z" fill="#BC1142"/>
<path d="M480.914 433.327C491.701 446.323 496.619 469.156 487.616 475.886C479.1 481.024 458.417 478.908 443.717 457.79C433.802 440.07 435.08 422.037 442.041 416.739C452.451 410.398 468.535 418.963 480.914 433.327Z" fill="#BC1142"/>
<path d="M590.682 429.207C579.011 442.877 572.512 467.811 581.026 475.843C589.167 482.082 611.021 481.21 627.164 458.811C638.886 443.767 634.958 418.644 628.262 411.974C618.316 404.281 604.038 414.127 590.682 429.207V429.207Z" fill="#BC1142"/>
</g>
</svg>
